<svg width="76" height="76" viewBox="0 0 76 76" fill="none" xmlns="http://www.w3.org/2000/svg">
<path d="M71.25 42.75H64.8672C65.9557 39.6328 66.5 36.4661 66.5 33.25H71.25C72.5365 33.25 73.6497 33.7201 74.5898 34.6602C75.5299 35.6003 76 36.7259 76 38.0371C76 39.3483 75.5299 40.4616 74.5898 41.377C73.6497 42.2923 72.5365 42.75 71.25 42.75ZM68.875 25.457L65.832 27.2383C65.1888 24.1211 64.0013 21.1771 62.2695 18.4062L64.1992 17.293C65.3372 16.6003 66.5247 16.4271 67.7617 16.7734C68.9987 17.1198 69.9512 17.862 70.6191 19C71.2871 20.138 71.4479 21.3379 71.1016 22.5996C70.7552 23.8613 70.013 24.8138 68.875 25.457ZM58.0391 12.9883C55.8125 10.7617 53.2148 8.95573 50.2461 7.57031L50.543 7.125C51.1862 5.98698 52.1387 5.24479 53.4004 4.89844C54.6621 4.55208 55.862 4.71289 57 5.38086C58.138 6.04883 58.8802 7.0013 59.2266 8.23828C59.5729 9.47526 59.3997 10.6628 58.707 11.8008L58.0391 12.9883ZM58.707 64.1992C59.3997 65.3372 59.5729 66.5247 59.2266 67.7617C58.8802 68.9987 58.138 69.9512 57 70.6191C55.862 71.2871 54.6621 71.4479 53.4004 71.1016C52.1387 70.7552 51.1862 70.013 50.543 68.875L45.7188 60.6367C48.8359 59.7956 51.7057 58.4596 54.3281 56.6289L58.707 64.1992ZM37.9629 76C36.6517 76 35.5384 75.5423 34.623 74.627C33.7077 73.7116 33.25 72.5859 33.25 71.25V61.1562C34.8333 61.5521 36.4167 61.75 38 61.75C39.4844 61.75 41.0677 61.6016 42.75 61.3047V71.25C42.75 72.5859 42.2799 73.7116 41.3398 74.627C40.3997 75.5423 39.2741 76 37.9629 76ZM38 28.5C36.3672 28.5 35.0807 27.832 34.1406 26.4961C29.638 27.1888 25.9889 28.9577 23.1934 31.8027C20.3978 34.6478 19 38.2969 19 42.75H4.75C3.46354 42.75 2.35026 42.2923 1.41016 41.377C0.470052 40.4616 0 39.3483 0 38.0371C0 36.7259 0.470052 35.6003 1.41016 34.6602C2.35026 33.7201 3.46354 33.25 4.75 33.25H20.4102L7.125 25.457C5.98698 24.8138 5.24479 23.8613 4.89844 22.5996C4.55208 21.3379 4.71289 20.138 5.38086 19C6.04883 17.862 7.0013 17.1198 8.23828 16.7734C9.47526 16.4271 10.6628 16.6003 11.8008 17.293L24.8633 24.8633L17.293 11.8008C16.6003 10.6628 16.4271 9.47526 16.7734 8.23828C17.1198 7.0013 17.862 6.04883 19 5.38086C20.138 4.71289 21.3379 4.55208 22.5996 4.89844C23.8613 5.24479 24.8138 5.98698 25.457 7.125L33.25 20.4102V4.75C33.25 3.46354 33.7077 2.35026 34.623 1.41016C35.5384 0.470052 36.6641 0 38 0C39.3359 0 40.4616 0.470052 41.377 1.41016C42.2923 2.35026 42.75 3.46354 42.75 4.75V23.75C42.75 25.0859 42.2799 26.2116 41.3398 27.127C40.3997 28.0423 39.2865 28.5 38 28.5ZM7.125 50.543L19.0742 43.5664C19.1732 46.931 20.1133 50.0234 21.8945 52.8438L11.8008 58.707C10.6628 59.3997 9.47526 59.5729 8.23828 59.2266C7.0013 58.8802 6.04883 58.138 5.38086 57C4.71289 55.862 4.55208 54.6621 4.89844 53.4004C5.24479 52.1387 5.98698 51.1862 7.125 50.543ZM23.0078 54.3281C25.0365 57 27.5352 58.9544 30.5039 60.1914L25.457 68.875C24.8138 70.013 23.8613 70.7552 22.5996 71.1016C21.3379 71.4479 20.138 71.2871 19 70.6191C17.862 69.9512 17.1198 68.9987 16.7734 67.7617C16.4271 66.5247 16.6003 65.3372 17.293 64.1992L23.0078 54.3281ZM62.9375 47.0547L68.875 50.543C70.013 51.1862 70.7552 52.1387 71.1016 53.4004C71.4479 54.6621 71.2871 55.862 70.6191 57C69.9512 58.138 68.9987 58.8802 67.7617 59.2266C66.5247 59.5729 65.3372 59.3997 64.1992 58.707L56.9258 54.4766C59.3997 52.2995 61.4036 49.8255 62.9375 47.0547Z" fill="#EC362D"/>
</svg>
